<svg xmlns="http://www.w3.org/2000/svg" width="24" height="21.656" viewBox="0 0 24 21.656">
  <g id="calendar_1_" data-name="calendar (1)" transform="translate(0 -25)">
    <path id="Caminho_58" data-name="Caminho 58" d="M24,31.873V29.057a2.131,2.131,0,0,0-2.109-2.148h-.281v2.625a.7.7,0,1,1-1.406,0V25.716a.7.7,0,1,0-1.406,0v1.193H14.109v2.625a.7.7,0,1,1-1.406,0V25.716a.7.7,0,1,0-1.406,0v1.193H6.609v2.625a.7.7,0,1,1-1.406,0V25.716a.7.7,0,1,0-1.406,0v1.193H2.109A2.131,2.131,0,0,0,0,29.057v2.816Z" transform="translate(0 0)" fill="#fcfcfc"/>
    <path id="Caminho_59" data-name="Caminho 59" d="M0,199v11.6a2.131,2.131,0,0,0,2.109,2.148H21.891A2.131,2.131,0,0,0,24,210.6V199Zm6.75,9.928H5.25a.716.716,0,0,1,0-1.432h1.5a.716.716,0,0,1,0,1.432Zm0-3.055H5.25a.716.716,0,0,1,0-1.432h1.5a.716.716,0,0,1,0,1.432Zm0-3.055H5.25a.716.716,0,0,1,0-1.432h1.5a.716.716,0,0,1,0,1.432Zm6,6.109h-1.5a.716.716,0,0,1,0-1.432h1.5a.716.716,0,0,1,0,1.432Zm0-3.055h-1.5a.716.716,0,0,1,0-1.432h1.5a.716.716,0,0,1,0,1.432Zm0-3.055h-1.5a.716.716,0,0,1,0-1.432h1.5a.716.716,0,0,1,0,1.432Zm6,6.109h-1.5a.716.716,0,0,1,0-1.432h1.5a.716.716,0,0,1,0,1.432Zm0-3.055h-1.5a.716.716,0,0,1,0-1.432h1.5a.716.716,0,0,1,0,1.432Zm0-3.055h-1.5a.716.716,0,0,1,0-1.432h1.5a.716.716,0,0,1,0,1.432Z" transform="translate(0 -166.09)" fill="#fcfcfc"/>
  </g>
</svg>
